<?xml version="1.0" encoding="utf-8"?>
<!-- Generator: Adobe Illustrator 22.0.1, SVG Export Plug-In . SVG Version: 6.00 Build 0)  -->
<svg version="1.1" id="Ebene_1" xmlns="http://www.w3.org/2000/svg" xmlns:xlink="http://www.w3.org/1999/xlink" x="0px" y="0px"
	 viewBox="0 0 1000 250" style="enable-background:new 0 0 1000 250;" xml:space="preserve">
<style type="text/css">
	.st0{fill:#FCC00E;}
	.st1{fill:#FFFFFF;stroke:#373737;stroke-width:7;stroke-miterlimit:10;}
</style>
<polygon class="st0" points="106.9,39.9 134.2,96.4 196.3,104.9 151,148.3 162.2,210.1 106.9,180.4 51.6,210.1 62.7,148.3 
	17.4,104.9 79.6,96.4 "/>
<polygon class="st1" points="696.6,49.5 721.1,100.3 777,107.9 736.3,147 746.3,202.5 696.6,175.9 646.8,202.5 656.8,147 
	616.1,107.9 672,100.3 "/>
<polygon class="st1" points="891.1,48.5 915.7,99.3 971.6,106.9 930.9,146 940.9,201.5 891.1,174.9 841.4,201.5 851.4,146 
	810.7,106.9 866.6,99.3 "/>
<polygon class="st1" points="500,49.5 524.6,100.3 580.5,107.9 539.7,147 549.7,202.5 500,175.9 450.3,202.5 460.3,147 419.5,107.9 
	475.4,100.3 "/>
<polygon class="st1" points="303.4,49.5 328,100.3 383.9,107.9 343.2,147 353.2,202.5 303.4,175.9 253.7,202.5 263.7,147 223,107.9 
	278.9,100.3 "/>
</svg>
