<?xml version="1.0" encoding="utf-8"?>
<!-- Generator: Adobe Illustrator 22.0.1, SVG Export Plug-In . SVG Version: 6.00 Build 0)  -->
<svg version="1.1" id="Ebene_1" xmlns="http://www.w3.org/2000/svg" xmlns:xlink="http://www.w3.org/1999/xlink" x="0px" y="0px"
	 viewBox="0 0 1000 250" style="enable-background:new 0 0 1000 250;" xml:space="preserve">
<style type="text/css">
	.st0{fill:#FCC00E;}
	.st1{fill:#FFFFFF;stroke:#373737;stroke-width:7;stroke-miterlimit:10;}
</style>
<polygon class="st0" points="106.9,39.9 134.2,96.4 196.3,104.9 151,148.3 162.2,210.1 106.9,180.4 51.6,210.1 62.7,148.3 
	17.4,104.9 79.6,96.4 "/>
<polygon class="st0" points="303.4,39.9 330.7,96.4 392.9,104.9 347.6,148.3 358.7,210.1 303.4,180.4 248.2,210.1 259.3,148.3 
	214,104.9 276.1,96.4 "/>
<polygon class="st0" points="500,39.9 527.3,96.4 589.4,104.9 544.2,148.3 555.3,210.1 500,180.4 444.7,210.1 455.8,148.3 
	410.6,104.9 472.7,96.4 "/>
<polygon class="st0" points="696.6,39.9 723.9,96.4 786,104.9 740.7,148.3 751.8,210.1 696.6,180.4 641.3,210.1 652.4,148.3 
	607.1,104.9 669.3,96.4 "/>
<polygon class="st1" points="891.1,48.5 915.7,99.3 971.6,106.9 930.9,146 940.9,201.5 891.1,174.9 841.4,201.5 851.4,146 
	810.7,106.9 866.6,99.3 "/>
</svg>
