<svg id="Ebene_1" data-name="Ebene 1" xmlns="http://www.w3.org/2000/svg" viewBox="0 0 1000 250"><defs><style>.cls-1{fill:#fcc00e;}</style></defs><title>rating-5</title><polygon class="cls-1" points="106.88 39.93 134.17 96.41 196.33 104.92 151.04 148.33 162.16 210.07 106.88 180.42 51.6 210.07 62.71 148.33 17.43 104.92 79.58 96.41 106.88 39.93"/><polygon class="cls-1" points="303.44 39.93 330.74 96.41 392.89 104.92 347.61 148.33 358.72 210.07 303.44 180.42 248.16 210.07 259.27 148.33 213.99 104.92 276.14 96.41 303.44 39.93"/><polygon class="cls-1" points="500 39.93 527.3 96.41 589.45 104.92 544.17 148.33 555.28 210.07 500 180.42 444.72 210.07 455.83 148.33 410.55 104.92 472.7 96.41 500 39.93"/><polygon class="cls-1" points="696.56 39.93 723.86 96.41 786.01 104.92 740.73 148.33 751.84 210.07 696.56 180.42 641.28 210.07 652.39 148.33 607.11 104.92 669.26 96.41 696.56 39.93"/><polygon class="cls-1" points="893.12 39.93 920.42 96.41 982.57 104.92 937.29 148.33 948.4 210.07 893.12 180.42 837.84 210.07 848.96 148.33 803.67 104.92 865.83 96.41 893.12 39.93"/></svg>